<svg width="289" height="89" viewBox="0 0 289 89" fill="none" xmlns="http://www.w3.org/2000/svg">
<path d="M90.867 53V19.63H100.032V45.01H115.166V53H90.867ZM123.06 53V19.63H132.225V53H123.06ZM142.677 53V19.63H151.842V32.32L161.994 19.63H172.334L160.208 34.576L173.18 53H162.652L154.38 40.733L151.842 43.365V53H142.677ZM187.535 19.63H197.781L208.403 53H199.097L197.076 46.467H188.193L186.219 53H176.866L187.535 19.63ZM195.619 40.357L192.658 28.607L189.556 40.357H195.619ZM225.041 36.597V53H215.876V19.63H223.02L236.415 36.597V19.63H245.58V53H238.295L225.041 36.597ZM263.718 19.63H273.964L284.586 53H275.28L273.259 46.467H264.376L262.402 53H253.049L263.718 19.63ZM271.802 40.357L268.841 28.607L265.739 40.357H271.802Z" fill="#1E252F"/>
<path d="M91.2433 68V57.35H98.2333V58.28H92.2933V62.195H97.3033V63.065H92.2933V68H91.2433ZM114.961 68.075C114.211 68.075 113.531 67.925 112.921 67.625C112.311 67.325 111.786 66.92 111.346 66.41C110.906 65.89 110.566 65.31 110.326 64.67C110.086 64.02 109.966 63.355 109.966 62.675C109.966 61.965 110.091 61.29 110.341 60.65C110.591 60 110.941 59.425 111.391 58.925C111.851 58.415 112.386 58.015 112.996 57.725C113.606 57.425 114.266 57.275 114.976 57.275C115.726 57.275 116.406 57.43 117.016 57.74C117.626 58.05 118.146 58.465 118.576 58.985C119.016 59.505 119.356 60.085 119.596 60.725C119.836 61.365 119.956 62.02 119.956 62.69C119.956 63.4 119.831 64.08 119.581 64.73C119.331 65.37 118.981 65.945 118.531 66.455C118.081 66.955 117.551 67.35 116.941 67.64C116.331 67.93 115.671 68.075 114.961 68.075ZM111.016 62.675C111.016 63.255 111.111 63.815 111.301 64.355C111.491 64.885 111.761 65.36 112.111 65.78C112.461 66.19 112.876 66.52 113.356 66.77C113.846 67.01 114.381 67.13 114.961 67.13C115.571 67.13 116.116 67.005 116.596 66.755C117.086 66.495 117.501 66.155 117.841 65.735C118.191 65.305 118.456 64.825 118.636 64.295C118.816 63.765 118.906 63.225 118.906 62.675C118.906 62.095 118.811 61.54 118.621 61.01C118.431 60.48 118.156 60.005 117.796 59.585C117.446 59.165 117.031 58.835 116.551 58.595C116.071 58.355 115.541 58.235 114.961 58.235C114.361 58.235 113.816 58.36 113.326 58.61C112.846 58.86 112.431 59.2 112.081 59.63C111.741 60.05 111.476 60.525 111.286 61.055C111.106 61.585 111.016 62.125 111.016 62.675ZM137.071 68.075C136.231 68.075 135.521 67.925 134.941 67.625C134.361 67.325 133.901 66.925 133.561 66.425C133.221 65.915 132.971 65.34 132.811 64.7C132.661 64.06 132.586 63.4 132.586 62.72V57.35H133.621V62.72C133.621 63.27 133.676 63.81 133.786 64.34C133.906 64.87 134.096 65.345 134.356 65.765C134.616 66.185 134.966 66.52 135.406 66.77C135.846 67.01 136.396 67.13 137.056 67.13C137.736 67.13 138.296 67.005 138.736 66.755C139.186 66.495 139.536 66.155 139.786 65.735C140.046 65.315 140.231 64.845 140.341 64.325C140.451 63.795 140.506 63.26 140.506 62.72V57.35H141.556V62.72C141.556 63.43 141.476 64.11 141.316 64.76C141.156 65.41 140.896 65.98 140.536 66.47C140.186 66.96 139.726 67.35 139.156 67.64C138.586 67.93 137.891 68.075 137.071 68.075ZM155.909 59.285V68H154.859V57.35H155.729L162.719 66.23V57.365H163.769V68H162.794L155.909 59.285ZM177.246 68V57.35H180.861C181.991 57.35 182.931 57.59 183.681 58.07C184.441 58.54 185.011 59.18 185.391 59.99C185.771 60.79 185.961 61.68 185.961 62.66C185.961 63.74 185.751 64.68 185.331 65.48C184.921 66.28 184.331 66.9 183.561 67.34C182.801 67.78 181.901 68 180.861 68H177.246ZM184.911 62.66C184.911 61.81 184.751 61.055 184.431 60.395C184.121 59.735 183.666 59.22 183.066 58.85C182.466 58.47 181.731 58.28 180.861 58.28H178.296V67.07H180.861C181.741 67.07 182.481 66.875 183.081 66.485C183.681 66.095 184.136 65.57 184.446 64.91C184.756 64.24 184.911 63.49 184.911 62.66ZM201.688 57.35H202.573L206.998 68H205.888L204.508 64.67H199.723L198.358 68H197.233L201.688 57.35ZM204.268 63.845L202.123 58.58L199.948 63.845H204.268ZM225.859 58.28H222.064V68H221.014V58.28H217.219V57.35H225.859V58.28ZM238.254 68V57.35H239.304V68H238.254ZM257.065 68.075C256.315 68.075 255.635 67.925 255.025 67.625C254.415 67.325 253.89 66.92 253.45 66.41C253.01 65.89 252.67 65.31 252.43 64.67C252.19 64.02 252.07 63.355 252.07 62.675C252.07 61.965 252.195 61.29 252.445 60.65C252.695 60 253.045 59.425 253.495 58.925C253.955 58.415 254.49 58.015 255.1 57.725C255.71 57.425 256.37 57.275 257.08 57.275C257.83 57.275 258.51 57.43 259.12 57.74C259.73 58.05 260.25 58.465 260.68 58.985C261.12 59.505 261.46 60.085 261.7 60.725C261.94 61.365 262.06 62.02 262.06 62.69C262.06 63.4 261.935 64.08 261.685 64.73C261.435 65.37 261.085 65.945 260.635 66.455C260.185 66.955 259.655 67.35 259.045 67.64C258.435 67.93 257.775 68.075 257.065 68.075ZM253.12 62.675C253.12 63.255 253.215 63.815 253.405 64.355C253.595 64.885 253.865 65.36 254.215 65.78C254.565 66.19 254.98 66.52 255.46 66.77C255.95 67.01 256.485 67.13 257.065 67.13C257.675 67.13 258.22 67.005 258.7 66.755C259.19 66.495 259.605 66.155 259.945 65.735C260.295 65.305 260.56 64.825 260.74 64.295C260.92 63.765 261.01 63.225 261.01 62.675C261.01 62.095 260.915 61.54 260.725 61.01C260.535 60.48 260.26 60.005 259.9 59.585C259.55 59.165 259.135 58.835 258.655 58.595C258.175 58.355 257.645 58.235 257.065 58.235C256.465 58.235 255.92 58.36 255.43 58.61C254.95 58.86 254.535 59.2 254.185 59.63C253.845 60.05 253.58 60.525 253.39 61.055C253.21 61.585 253.12 62.125 253.12 62.675ZM275.89 59.285V68H274.84V57.35H275.71L282.7 66.23V57.365H283.75V68H282.775L275.89 59.285Z" fill="#1E252F"/>
<path d="M35.7905 0.630343C34.7791 0.727084 33.5147 0.88187 32.9701 1.01731C31.9197 1.24949 28.5352 2.1782 28.4379 2.2556C28.3601 2.31364 28.7297 3.70672 28.9826 4.38391C29.1576 4.82892 29.1771 4.82892 30.0913 4.53869C33.009 3.60998 34.2344 3.43584 38.222 3.43584C41.2175 3.41649 42.4429 3.49389 43.5711 3.74541C45.6718 4.22912 47.7337 4.92566 49.6788 5.81568L51.3711 6.58961L51.0404 7.32484C50.593 8.36965 50.3013 9.29837 50.3985 9.39511C50.4374 9.45315 51.7018 9.35641 53.1995 9.22097C54.6973 9.06619 56.3312 8.93075 56.8369 8.93075C57.3427 8.93075 57.79 8.85336 57.8484 8.75661C57.9651 8.56313 53.8803 1.59776 53.6664 1.57841C53.5885 1.57841 53.2968 2.13951 53.005 2.83604C52.6938 3.53258 52.4215 4.09368 52.3826 4.09368C52.3437 4.09368 51.5851 3.76476 50.7097 3.3391C47.4614 1.81059 44.0574 0.920567 40.3422 0.610994C38.9806 0.514253 37.8135 0.43686 37.7551 0.43686C37.6968 0.456208 36.802 0.533601 35.7905 0.630343Z" fill="#10742E"/>
<path d="M25.3841 3.9389C24.9561 4.15173 24.5866 4.36456 24.5477 4.38391C24.431 4.48065 25.3646 6.22199 25.5202 6.22199C25.6758 6.22199 26.8429 5.68024 26.9985 5.5448C27.0958 5.46741 26.3761 3.51323 26.2594 3.51323C26.201 3.53258 25.812 3.70672 25.3841 3.9389Z" fill="#10742E"/>
<path d="M21.3966 6.39613L20.7352 6.93788L21.2604 7.75051C21.5522 8.17617 21.844 8.54379 21.8829 8.54379C22.0968 8.54379 23.3417 7.67311 23.3417 7.51833C23.3417 7.17006 22.5248 5.83503 22.3108 5.83503C22.1746 5.83503 21.7662 6.08655 21.3966 6.39613Z" fill="#10742E"/>
<path d="M18.012 9.20162L17.2534 9.85946L17.8953 10.6527C18.2649 11.0978 18.5956 11.446 18.6734 11.446C18.7317 11.446 19.0818 11.1558 19.432 10.7882L20.0933 10.111L19.4709 9.33706C19.1207 8.89205 18.829 8.54378 18.8095 8.54378C18.7901 8.54378 18.44 8.85335 18.012 9.20162Z" fill="#10742E"/>
<path d="M61.1162 12.8585C60.7661 13.2067 60.4938 13.5356 60.4938 13.613C60.4938 13.6711 60.7466 14.0387 61.0579 14.4257L61.622 15.1415L62.3417 14.5224C62.7696 14.1548 63.003 13.7872 62.9252 13.6324C62.8085 13.2841 61.9915 12.2393 61.8359 12.2393C61.7776 12.22 61.4663 12.5102 61.1162 12.8585Z" fill="#10742E"/>
<path d="M11.9237 16.9796C10.2898 18.1986 8.94768 19.3208 8.94768 19.4369C8.94768 19.5723 9.43396 19.9206 10.0175 20.2495C10.601 20.5591 11.0873 20.8493 11.0873 20.8686C11.0873 20.9073 10.6594 22.223 10.1342 23.7902C8.40304 28.8982 7.8584 32.613 8.03346 38.0499C8.11127 39.9654 8.28633 42.2485 8.44194 43.1385C8.85042 45.3248 9.37561 47.4919 9.53122 47.6853C9.66738 47.8401 11.204 47.3371 11.5542 47.0275C11.6514 46.9501 11.5542 46.1762 11.3207 45.2668C9.76463 39.1334 10.037 31.5489 12.021 25.4735C12.41 24.2933 13.2075 22.2424 13.3242 22.1263C13.3631 22.0876 13.8689 22.3391 14.4719 22.6874C15.0943 23.0163 15.6195 23.2485 15.6973 23.1904C15.7557 23.1324 15.6973 21.4297 15.5806 19.4369C15.4639 17.444 15.3666 15.5672 15.3666 15.2576C15.3666 14.9674 15.2499 14.7352 15.1332 14.7352C14.9971 14.7352 13.5382 15.7413 11.9237 16.9796Z" fill="#10742E"/>
<path d="M63.7033 16.5346L62.9641 17.1731L63.392 17.9857C63.6255 18.4308 63.8978 18.7984 63.995 18.7984C64.2479 18.7984 65.5511 17.9664 65.5511 17.8116C65.5511 17.6762 64.5786 15.8961 64.5008 15.8961C64.4619 15.8961 64.1117 16.1864 63.7033 16.5346Z" fill="#10742E"/>
<path d="M56.2145 18.0438C53.2579 18.8758 51.0793 19.3014 46.6833 19.8625C41.023 20.5784 40.1865 21.7586 39.1167 30.3106C38.9806 31.3167 38.6888 32.4002 38.2414 33.4063C37.8718 34.2383 37.3661 35.7474 37.1132 36.7342C36.8798 37.721 36.6269 38.5336 36.5491 38.5336C36.2574 38.5336 35.3821 36.9664 34.5262 34.9155C33.5147 32.4776 32.5033 31.1426 31.3945 30.7943C30.5581 30.5234 29.5466 30.6202 26.9013 31.278C25.8509 31.5295 23.8668 31.8778 22.4663 32.0713C21.0853 32.2454 19.821 32.4969 19.7043 32.5937C19.2374 32.9419 19.4514 33.9481 20.3267 35.6701C21.9995 38.9593 23.5167 40.7006 25.598 41.668C26.6873 42.1711 27.0374 42.2485 28.0683 42.1711C29.2743 42.0937 31.9003 41.0876 31.9003 40.7006C31.9003 40.4491 31.3362 40.2362 28.7297 39.4236C27.4654 39.0367 26.2594 38.5336 26.0454 38.3208C25.5008 37.779 25.5591 36.8696 26.1621 36.4827C26.6289 36.1731 26.7457 36.1925 28.3601 36.6762C31.589 37.6436 33.5731 38.9593 35.3432 41.2811L36.1407 42.3065L36.024 49.2332C35.9656 54.0896 35.8683 56.1986 35.7127 56.2373C35.596 56.2566 34.7985 56.3921 33.9427 56.5081C30.5776 57.0112 27.5043 58.3075 24.3531 60.5713L23.1471 61.4419L23.6529 61.7128C23.9447 61.8676 24.4115 62.0611 24.6838 62.1385C24.9561 62.2159 26.7262 62.835 28.5935 63.5122L31.9975 64.7312L36.7631 64.8472C41.412 64.944 41.5676 64.9633 42.5013 65.447C43.6878 66.0468 44.6409 67.2271 45.0299 68.6202L45.3412 69.665L49.2703 67.1303C51.4294 65.7373 53.2384 64.557 53.2968 64.5183C53.4913 64.3248 50.593 61.8676 48.5312 60.4939C45.1855 58.2688 42.8708 57.3014 38.7277 56.4114C38.2998 56.3147 38.2803 56.2566 38.397 55.1151C38.4554 54.4572 38.5526 51.168 38.611 47.8208C38.7666 39.7912 39.0973 37.6242 40.7506 34.1609C42.0733 31.4328 42.9097 30.5428 46.4888 28.1629C49.3287 26.2668 49.6594 26.0927 50.1456 26.2668C50.4374 26.3635 50.7875 26.6925 50.9237 26.9827C51.41 27.9888 51.0599 28.4145 48.2783 30.3106C46.0025 31.8584 43.9601 33.5611 43.9601 33.89C43.9601 34.3737 47.9865 34.7994 49.6399 34.4898C53.2579 33.832 56.0005 30.7362 57.4594 25.7057C57.9651 23.9837 58.7432 19.8625 58.7432 18.9338C58.7432 18.4888 57.9456 17.5988 57.5955 17.6568C57.5372 17.6762 56.9147 17.8503 56.2145 18.0438Z" fill="#10742E"/>
<path d="M65.8235 20.6558L65.0066 21.1395L65.3567 22.0489C65.7457 23.0163 65.8041 23.0356 66.8739 22.5326C67.5547 22.2037 67.5547 22.165 66.9906 20.7912C66.835 20.443 66.6989 20.1527 66.66 20.1527C66.6405 20.1721 66.2515 20.3849 65.8235 20.6558Z" fill="#10742E"/>
<path d="M67.2045 24.9318C66.7766 25.1059 66.407 25.2607 66.3681 25.28C66.3487 25.2994 66.4654 25.8411 66.621 26.4603C68.216 32.4002 68.216 38.7271 66.621 44.8218C66.1153 46.7566 64.8898 50.1426 64.6953 50.1426C64.598 50.1426 64.0534 49.891 63.4893 49.5621C62.8474 49.2138 62.4195 49.0591 62.3417 49.1945C62.2639 49.2912 62.2639 49.891 62.3222 50.4908C62.4 51.0906 62.5362 52.9287 62.6335 54.5733C62.7307 56.1986 62.8474 57.5917 62.9058 57.6303C63.0225 57.7464 69.2469 53.0448 69.2469 52.832C69.2469 52.7352 68.7217 52.387 68.0604 52.0774C67.1267 51.5937 66.9128 51.4002 67.01 51.1487C69.1302 46.1181 70.0639 41.4358 70.0833 35.7281C70.0833 31.8198 69.9277 30.2525 69.1302 26.7699C68.5856 24.3707 68.5856 24.39 67.2045 24.9318Z" fill="#10742E"/>
<path d="M11.2429 49.7556L10.5232 50.1426L10.9317 51.0519C11.1456 51.5743 11.3596 52 11.3791 52.0387C11.4763 52.1354 13.0324 51.3035 13.0324 51.168C13.0324 50.7617 12.3711 49.3686 12.1766 49.3686C12.0599 49.388 11.6319 49.5621 11.2429 49.7556Z" fill="#10742E"/>
<path d="M13.1881 53.9735L12.4684 54.4572L12.9936 55.3859C13.2853 55.9083 13.5577 56.334 13.616 56.334C13.6744 56.334 14.0439 56.0631 14.4524 55.7342L15.1721 55.1344L14.6858 54.3411C14.433 53.8961 14.1412 53.5092 14.0634 53.5092C13.9856 53.4898 13.5771 53.7026 13.1881 53.9735Z" fill="#10742E"/>
<path d="M15.6195 57.9206L14.9971 58.5204L15.6001 59.3717L16.2225 60.2037L16.9422 59.5071L17.6814 58.7912L17.1562 58.056C16.8644 57.6497 16.5337 57.3014 16.4365 57.3014C16.3198 57.3014 15.9502 57.5723 15.6195 57.9206Z" fill="#10742E"/>
<path d="M15.5611 63.609C14.219 63.9766 13.3048 64.4796 8.79207 67.4206C6.78858 68.7363 4.20155 70.4002 3.03447 71.1354C1.88683 71.8707 0.894814 72.5866 0.83646 72.7026C0.700301 73.0509 6.22449 83.6151 6.53571 83.6151C6.67187 83.6151 7.43048 83.2088 8.20853 82.7057C10.601 81.1578 12.5462 80.7515 14.3746 81.39C15.1527 81.6609 21.7467 85.3177 22.3691 85.8208C22.5247 85.9562 23.0499 86.2851 23.5362 86.556C26.629 88.3167 27.5626 88.5682 29.5467 88.2393C30.2469 88.1232 31.0833 87.891 31.3946 87.7363C31.9003 87.4847 36.0823 84.7953 45.5552 78.6039C47.4614 77.3656 51.1572 74.9664 53.7831 73.2637C59.0544 69.8391 59.1711 69.723 58.7432 68.1365C58.4514 67.053 57.3038 65.8147 56.6035 65.8147C56.2534 65.8147 54.5806 66.7821 51.5267 68.7363C49.0175 70.3422 46.4305 72.0061 45.7691 72.4511C45.1078 72.8768 44.3297 73.554 44.0574 73.9603C43.7851 74.3666 43.2015 74.947 42.7542 75.2373L41.9567 75.779L34.9931 75.8371C28.2045 75.8951 28.01 75.8758 27.621 75.4888C27.1542 75.0244 27.1153 74.5407 27.5043 74.0183C27.7766 73.6701 28.1462 73.6507 34.5651 73.554C39.5447 73.4766 41.4509 73.3992 41.7621 73.2057C43.1432 72.4318 43.2794 69.4328 41.9956 68.2138L41.412 67.6527L36.6075 67.556C33.826 67.4786 31.5502 67.3432 31.2195 67.2271C30.9083 67.111 29.5467 66.6273 28.2045 66.1436C26.8624 65.6599 25.034 65.002 24.1198 64.6538C20.6769 63.3961 17.7008 63.0285 15.5611 63.609Z" fill="#10742E"/>
</svg>
