<svg width="289" height="88" viewBox="0 0 289 88" fill="none" xmlns="http://www.w3.org/2000/svg">
<path d="M90.033 52.5631V19.1931H99.198V44.5731H114.332V52.5631H90.033ZM122.226 52.5631V19.1931H131.391V52.5631H122.226ZM141.843 52.5631V19.1931H151.008V31.8831L161.16 19.1931H171.5L159.374 34.1391L172.346 52.5631H161.818L153.546 40.2961L151.008 42.9281V52.5631H141.843ZM186.701 19.1931H196.947L207.569 52.5631H198.263L196.242 46.0301H187.359L185.385 52.5631H176.032L186.701 19.1931ZM194.785 39.9201L191.824 28.1701L188.722 39.9201H194.785ZM224.207 36.1601V52.5631H215.042V19.1931H222.186L235.581 36.1601V19.1931H244.746V52.5631H237.461L224.207 36.1601ZM262.884 19.1931H273.13L283.752 52.5631H274.446L272.425 46.0301H263.542L261.568 52.5631H252.215L262.884 19.1931ZM270.968 39.9201L268.007 28.1701L264.905 39.9201H270.968Z" fill="#10742E"/>
<path d="M90.4093 67.5631V56.9131H97.3993V57.8431H91.4593V61.7581H96.4693V62.6281H91.4593V67.5631H90.4093ZM114.127 67.6381C113.377 67.6381 112.697 67.4881 112.087 67.1881C111.477 66.8881 110.952 66.4831 110.512 65.9731C110.072 65.4531 109.732 64.8731 109.492 64.2331C109.252 63.5831 109.132 62.9181 109.132 62.2381C109.132 61.5281 109.257 60.8531 109.507 60.2131C109.757 59.5631 110.107 58.9881 110.557 58.4881C111.017 57.9781 111.552 57.5781 112.162 57.2881C112.772 56.9881 113.432 56.8381 114.142 56.8381C114.892 56.8381 115.572 56.9931 116.182 57.3031C116.792 57.6131 117.312 58.0281 117.742 58.5481C118.182 59.0681 118.522 59.6481 118.762 60.2881C119.002 60.9281 119.122 61.5831 119.122 62.2531C119.122 62.9631 118.997 63.6431 118.747 64.2931C118.497 64.9331 118.147 65.5081 117.697 66.0181C117.247 66.5181 116.717 66.9131 116.107 67.2031C115.497 67.4931 114.837 67.6381 114.127 67.6381ZM110.182 62.2381C110.182 62.8181 110.277 63.3781 110.467 63.9181C110.657 64.4481 110.927 64.9231 111.277 65.3431C111.627 65.7531 112.042 66.0831 112.522 66.3331C113.012 66.5731 113.547 66.6931 114.127 66.6931C114.737 66.6931 115.282 66.5681 115.762 66.3181C116.252 66.0581 116.667 65.7181 117.007 65.2981C117.357 64.8681 117.622 64.3881 117.802 63.8581C117.982 63.3281 118.072 62.7881 118.072 62.2381C118.072 61.6581 117.977 61.1031 117.787 60.5731C117.597 60.0431 117.322 59.5681 116.962 59.1481C116.612 58.7281 116.197 58.3981 115.717 58.1581C115.237 57.9181 114.707 57.7981 114.127 57.7981C113.527 57.7981 112.982 57.9231 112.492 58.1731C112.012 58.4231 111.597 58.7631 111.247 59.1931C110.907 59.6131 110.642 60.0881 110.452 60.6181C110.272 61.1481 110.182 61.6881 110.182 62.2381ZM136.237 67.6381C135.397 67.6381 134.687 67.4881 134.107 67.1881C133.527 66.8881 133.067 66.4881 132.727 65.9881C132.387 65.4781 132.137 64.9031 131.977 64.2631C131.827 63.6231 131.752 62.9631 131.752 62.2831V56.9131H132.787V62.2831C132.787 62.8331 132.842 63.3731 132.952 63.9031C133.072 64.4331 133.262 64.9081 133.522 65.3281C133.782 65.7481 134.132 66.0831 134.572 66.3331C135.012 66.5731 135.562 66.6931 136.222 66.6931C136.902 66.6931 137.462 66.5681 137.902 66.3181C138.352 66.0581 138.702 65.7181 138.952 65.2981C139.212 64.8781 139.397 64.4081 139.507 63.8881C139.617 63.3581 139.672 62.8231 139.672 62.2831V56.9131H140.722V62.2831C140.722 62.9931 140.642 63.6731 140.482 64.3231C140.322 64.9731 140.062 65.5431 139.702 66.0331C139.352 66.5231 138.892 66.9131 138.322 67.2031C137.752 67.4931 137.057 67.6381 136.237 67.6381ZM155.075 58.8481V67.5631H154.025V56.9131H154.895L161.885 65.7931V56.9281H162.935V67.5631H161.96L155.075 58.8481ZM176.412 67.5631V56.9131H180.027C181.157 56.9131 182.097 57.1531 182.847 57.6331C183.607 58.1031 184.177 58.7431 184.557 59.5531C184.937 60.3531 185.127 61.2431 185.127 62.2231C185.127 63.3031 184.917 64.2431 184.497 65.0431C184.087 65.8431 183.497 66.4631 182.727 66.9031C181.967 67.3431 181.067 67.5631 180.027 67.5631H176.412ZM184.077 62.2231C184.077 61.3731 183.917 60.6181 183.597 59.9581C183.287 59.2981 182.832 58.7831 182.232 58.4131C181.632 58.0331 180.897 57.8431 180.027 57.8431H177.462V66.6331H180.027C180.907 66.6331 181.647 66.4381 182.247 66.0481C182.847 65.6581 183.302 65.1331 183.612 64.4731C183.922 63.8031 184.077 63.0531 184.077 62.2231ZM200.854 56.9131H201.739L206.164 67.5631H205.054L203.674 64.2331H198.889L197.524 67.5631H196.399L200.854 56.9131ZM203.434 63.4081L201.289 58.1431L199.114 63.4081H203.434ZM225.025 57.8431H221.23V67.5631H220.18V57.8431H216.385V56.9131H225.025V57.8431ZM237.42 67.5631V56.9131H238.47V67.5631H237.42ZM256.231 67.6381C255.481 67.6381 254.801 67.4881 254.191 67.1881C253.581 66.8881 253.056 66.4831 252.616 65.9731C252.176 65.4531 251.836 64.8731 251.596 64.2331C251.356 63.5831 251.236 62.9181 251.236 62.2381C251.236 61.5281 251.361 60.8531 251.611 60.2131C251.861 59.5631 252.211 58.9881 252.661 58.4881C253.121 57.9781 253.656 57.5781 254.266 57.2881C254.876 56.9881 255.536 56.8381 256.246 56.8381C256.996 56.8381 257.676 56.9931 258.286 57.3031C258.896 57.6131 259.416 58.0281 259.846 58.5481C260.286 59.0681 260.626 59.6481 260.866 60.2881C261.106 60.9281 261.226 61.5831 261.226 62.2531C261.226 62.9631 261.101 63.6431 260.851 64.2931C260.601 64.9331 260.251 65.5081 259.801 66.0181C259.351 66.5181 258.821 66.9131 258.211 67.2031C257.601 67.4931 256.941 67.6381 256.231 67.6381ZM252.286 62.2381C252.286 62.8181 252.381 63.3781 252.571 63.9181C252.761 64.4481 253.031 64.9231 253.381 65.3431C253.731 65.7531 254.146 66.0831 254.626 66.3331C255.116 66.5731 255.651 66.6931 256.231 66.6931C256.841 66.6931 257.386 66.5681 257.866 66.3181C258.356 66.0581 258.771 65.7181 259.111 65.2981C259.461 64.8681 259.726 64.3881 259.906 63.8581C260.086 63.3281 260.176 62.7881 260.176 62.2381C260.176 61.6581 260.081 61.1031 259.891 60.5731C259.701 60.0431 259.426 59.5681 259.066 59.1481C258.716 58.7281 258.301 58.3981 257.821 58.1581C257.341 57.9181 256.811 57.7981 256.231 57.7981C255.631 57.7981 255.086 57.9231 254.596 58.1731C254.116 58.4231 253.701 58.7631 253.351 59.1931C253.011 59.6131 252.746 60.0881 252.556 60.6181C252.376 61.1481 252.286 61.6881 252.286 62.2381ZM275.056 58.8481V67.5631H274.006V56.9131H274.876L281.866 65.7931V56.9281H282.916V67.5631H281.941L275.056 58.8481Z" fill="#10742E"/>
<path d="M34.9566 0.193476C33.9451 0.290217 32.6807 0.445003 32.1361 0.580441C31.0857 0.81262 27.7012 1.74134 27.6039 1.81873C27.5261 1.87678 27.8957 3.26985 28.1486 3.94704C28.3236 4.39205 28.3431 4.39205 29.2573 4.10183C32.175 3.17311 33.4004 2.99897 37.388 2.99897C40.3835 2.97963 41.6089 3.05702 42.7371 3.30855C44.8379 3.79225 46.8997 4.48879 48.8448 5.37881L50.5371 6.15274L50.2064 6.88798C49.7591 7.93278 49.4673 8.8615 49.5645 8.95824C49.6034 9.01629 50.8678 8.91954 52.3655 8.78411C53.8633 8.62932 55.4972 8.49388 56.0029 8.49388C56.5087 8.49388 56.9561 8.41649 57.0144 8.31975C57.1311 8.12627 53.0463 1.16089 52.8324 1.14154C52.7546 1.14154 52.4628 1.70264 52.171 2.39918C51.8598 3.09572 51.5875 3.65682 51.5486 3.65682C51.5097 3.65682 50.7511 3.3279 49.8758 2.90223C46.6274 1.37372 43.2234 0.4837 39.5082 0.174127C38.1466 0.0773861 36.9795 -6.9302e-06 36.9211 -6.9302e-06C36.8628 0.0193413 35.968 0.0967344 34.9566 0.193476Z" fill="#10742E"/>
<path d="M24.5501 3.50203C24.1222 3.71486 23.7526 3.92769 23.7137 3.94704C23.597 4.04378 24.5306 5.78513 24.6862 5.78513C24.8419 5.78513 26.0089 5.24337 26.1646 5.10794C26.2618 5.03054 25.5421 3.07637 25.4254 3.07637C25.367 3.09572 24.978 3.26985 24.5501 3.50203Z" fill="#10742E"/>
<path d="M20.5626 5.95926L19.9012 6.50101L20.4264 7.31364C20.7182 7.7393 21.01 8.10692 21.0489 8.10692C21.2628 8.10692 22.5077 7.23625 22.5077 7.08146C22.5077 6.73319 21.6908 5.39816 21.4768 5.39816C21.3406 5.39816 20.9322 5.64969 20.5626 5.95926Z" fill="#10742E"/>
<path d="M17.178 8.76476L16.4194 9.4226L17.0613 10.2159C17.4309 10.6609 17.7616 11.0092 17.8394 11.0092C17.8977 11.0092 18.2479 10.7189 18.598 10.3513L19.2593 9.67412L18.6369 8.90019C18.2868 8.45518 17.995 8.10691 17.9755 8.10691C17.9561 8.10691 17.606 8.41649 17.178 8.76476Z" fill="#10742E"/>
<path d="M60.2822 12.4216C59.9321 12.7699 59.6598 13.0988 59.6598 13.1762C59.6598 13.2342 59.9127 13.6018 60.2239 13.9888L60.788 14.7047L61.5077 14.0855C61.9356 13.7179 62.169 13.3503 62.0912 13.1955C61.9745 12.8472 61.1575 11.8024 61.0019 11.8024C60.9436 11.7831 60.6324 12.0733 60.2822 12.4216Z" fill="#10742E"/>
<path d="M11.0898 16.5428C9.45584 17.7617 8.11369 18.8839 8.11369 19C8.11369 19.1354 8.59998 19.4837 9.18352 19.8126C9.76706 20.1222 10.2533 20.4124 10.2533 20.4318C10.2533 20.4705 9.82541 21.7861 9.30023 23.3534C7.56905 28.4613 7.02442 32.1762 7.19948 37.613C7.27728 39.5285 7.45235 41.8116 7.60796 42.7016C8.01644 44.888 8.54162 47.055 8.69723 47.2485C8.83339 47.4033 10.3701 46.9002 10.7202 46.5906C10.8174 46.5132 10.7202 45.7393 10.4868 44.8299C8.93065 38.6965 9.20297 31.112 11.187 25.0367C11.576 23.8564 12.3735 21.8055 12.4903 21.6894C12.5292 21.6507 13.0349 21.9022 13.6379 22.2505C14.2603 22.5794 14.7855 22.8116 14.8633 22.7536C14.9217 22.6955 14.8633 20.9929 14.7466 19C14.6299 17.0071 14.5326 15.1303 14.5326 14.8208C14.5326 14.5305 14.4159 14.2984 14.2992 14.2984C14.1631 14.2984 12.7042 15.3045 11.0898 16.5428Z" fill="#10742E"/>
<path d="M62.8693 16.0978L62.1301 16.7362L62.5581 17.5489C62.7915 17.9939 63.0638 18.3615 63.161 18.3615C63.4139 18.3615 64.7172 17.5295 64.7172 17.3747C64.7172 17.2393 63.7446 15.4593 63.6668 15.4593C63.6279 15.4593 63.2778 15.7495 62.8693 16.0978Z" fill="#10742E"/>
<path d="M55.3805 17.6069C52.4239 18.4389 50.2453 18.8646 45.8493 19.4257C40.189 20.1415 39.3526 21.3218 38.2827 29.8737C38.1466 30.8798 37.8548 31.9633 37.4074 32.9694C37.0379 33.8014 36.5321 35.3106 36.2792 36.2973C36.0458 37.2841 35.793 38.0967 35.7152 38.0967C35.4234 38.0967 34.5481 36.5295 33.6922 34.4786C32.6807 32.0407 31.6693 30.7057 30.5605 30.3574C29.7241 30.0866 28.7127 30.1833 26.0673 30.8411C25.0169 31.0927 23.0329 31.4409 21.6324 31.6344C20.2513 31.8086 18.987 32.0601 18.8703 32.1568C18.4034 32.5051 18.6174 33.5112 19.4927 35.2332C21.1655 38.5224 22.6827 40.2637 24.764 41.2312C25.8533 41.7342 26.2034 41.8116 27.2344 41.7342C28.4403 41.6568 31.0663 40.6507 31.0663 40.2637C31.0663 40.0122 30.5022 39.7994 27.8957 38.9868C26.6314 38.5998 25.4254 38.0967 25.2114 37.8839C24.6668 37.3422 24.7251 36.4328 25.3281 36.0458C25.795 35.7362 25.9117 35.7556 27.5261 36.2393C30.7551 37.2067 32.7391 38.5224 34.5092 40.8442L35.3067 41.8697L35.19 48.7963C35.1316 53.6527 35.0344 55.7617 34.8787 55.8004C34.762 55.8198 33.9645 55.9552 33.1087 56.0713C29.7436 56.5743 26.6703 57.8707 23.5191 60.1344L22.3132 61.0051L22.8189 61.276C23.1107 61.4308 23.5775 61.6242 23.8498 61.7016C24.1221 61.779 25.8922 62.3982 27.7595 63.0754L31.1635 64.2943L35.9291 64.4104C40.578 64.5071 40.7336 64.5265 41.6673 65.0102C42.8538 65.61 43.8069 66.7902 44.196 68.1833L44.5072 69.2281L48.4364 66.6935C50.5955 65.3004 52.4044 64.1202 52.4628 64.0815C52.6573 63.888 49.759 61.4308 47.6972 60.057C44.3516 57.832 42.0369 56.8646 37.8937 55.9745C37.4658 55.8778 37.4463 55.8198 37.563 54.6782C37.6214 54.0204 37.7186 50.7312 37.777 47.3839C37.9326 39.3544 38.2633 37.1874 39.9167 33.724C41.2393 30.9959 42.0758 30.1059 45.6548 27.7261C48.4947 25.8299 48.8254 25.6558 49.3117 25.8299C49.6034 25.9267 49.9536 26.2556 50.0897 26.5458C50.576 27.5519 50.2259 27.9776 47.4443 29.8737C45.1685 31.4216 43.1261 33.1242 43.1261 33.4532C43.1261 33.9369 47.1526 34.3625 48.8059 34.0529C52.4239 33.3951 55.1665 30.2994 56.6254 25.2688C57.1311 23.5468 57.9092 19.4257 57.9092 18.4969C57.9092 18.0519 57.1117 17.1619 56.7615 17.22C56.7032 17.2393 56.0807 17.4134 55.3805 17.6069Z" fill="#10742E"/>
<path d="M64.9896 20.2189L64.1726 20.7026L64.5227 21.612C64.9118 22.5794 64.9701 22.5988 66.0399 22.0957C66.7207 21.7668 66.7207 21.7281 66.1566 20.3544C66.001 20.0061 65.8649 19.7159 65.826 19.7159C65.8065 19.7352 65.4175 19.9481 64.9896 20.2189Z" fill="#10742E"/>
<path d="M66.3705 24.4949C65.9426 24.669 65.573 24.8238 65.5341 24.8432C65.5147 24.8625 65.6314 25.4043 65.787 26.0234C67.382 31.9633 67.382 38.2902 65.787 44.3849C65.2813 46.3197 64.0558 49.7057 63.8613 49.7057C63.7641 49.7057 63.2194 49.4542 62.6553 49.1252C62.0134 48.777 61.5855 48.6222 61.5077 48.7576C61.4299 48.8544 61.4299 49.4542 61.4883 50.054C61.5661 50.6538 61.7022 52.4918 61.7995 54.1364C61.8967 55.7617 62.0134 57.1548 62.0718 57.1935C62.1885 57.3096 68.4129 52.6079 68.4129 52.3951C68.4129 52.2984 67.8878 51.9501 67.2264 51.6405C66.2927 51.1568 66.0788 50.9633 66.176 50.7118C68.2962 45.6813 69.2299 40.999 69.2493 35.2912C69.2493 31.3829 69.0937 29.8157 68.2962 26.333C67.7516 23.9338 67.7516 23.9531 66.3705 24.4949Z" fill="#10742E"/>
<path d="M10.4089 49.3187L9.68921 49.7057L10.0977 50.6151C10.3117 51.1375 10.5256 51.5631 10.5451 51.6018C10.6423 51.6986 12.1984 50.8666 12.1984 50.7312C12.1984 50.3248 11.5371 48.9318 11.3426 48.9318C11.2259 48.9511 10.7979 49.1253 10.4089 49.3187Z" fill="#10742E"/>
<path d="M12.3541 53.5367L11.6344 54.0204L12.1596 54.9491C12.4514 55.4715 12.7237 55.8971 12.782 55.8971C12.8404 55.8971 13.21 55.6263 13.6184 55.2973L14.3381 54.6975L13.8519 53.9043C13.599 53.4593 13.3072 53.0723 13.2294 53.0723C13.1516 53.0529 12.7431 53.2658 12.3541 53.5367Z" fill="#10742E"/>
<path d="M14.7855 57.4837L14.1631 58.0835L14.7661 58.9348L15.3885 59.7668L16.1082 59.0703L16.8474 58.3544L16.3222 57.6191C16.0304 57.2128 15.6997 56.8646 15.6025 56.8646C15.4858 56.8646 15.1162 57.1354 14.7855 57.4837Z" fill="#10742E"/>
<path d="M14.7272 63.1721C13.385 63.5397 12.4708 64.0428 7.95809 66.9837C5.9546 68.2994 3.36756 69.9633 2.20048 70.6986C1.05285 71.4338 0.0608299 72.1497 0.00247574 72.2658C-0.133684 72.614 5.39051 83.1782 5.70173 83.1782C5.83789 83.1782 6.59649 82.7719 7.37455 82.2688C9.76706 80.721 11.7122 80.3147 13.5406 80.9532C14.3187 81.224 20.9127 84.8809 21.5351 85.3839C21.6908 85.5193 22.2159 85.8483 22.7022 86.1191C25.795 87.8798 26.7287 88.1314 28.7127 87.8024C29.413 87.6864 30.2494 87.4542 30.5606 87.2994C31.0663 87.0479 35.2484 84.3584 44.7212 78.167C46.6274 76.9287 50.3232 74.5295 52.9491 72.8269C58.2204 69.4022 58.3371 69.2861 57.9092 67.6996C57.6174 66.6161 56.4698 65.3778 55.7696 65.3778C55.4194 65.3778 53.7466 66.3452 50.6928 68.2994C48.1835 69.9053 45.5965 71.5692 44.9351 72.0143C44.2738 72.4399 43.4957 73.1171 43.2234 73.5234C42.9511 73.9297 42.3676 74.5102 41.9202 74.8004L41.1227 75.3422L34.1591 75.4002C27.3706 75.4582 27.176 75.4389 26.787 75.0519C26.3202 74.5876 26.2813 74.1039 26.6703 73.5815C26.9426 73.2332 27.3122 73.2138 33.7312 73.1171C38.7107 73.0397 40.6169 72.9623 40.9282 72.7688C42.3092 71.9949 42.4454 68.9959 41.1616 67.777L40.578 67.2159L35.7736 67.1191C32.992 67.0417 30.7162 66.9063 30.3855 66.7902C30.0743 66.6741 28.7127 66.1904 27.3706 65.7067C26.0284 65.223 24.2 64.5652 23.2858 64.2169C19.8429 62.9593 16.8668 62.5916 14.7272 63.1721Z" fill="#10742E"/>
</svg>
