<svg width="203" height="53" viewBox="0 0 203 53" fill="none" xmlns="http://www.w3.org/2000/svg">
<path d="M4.867 35V1.63H14.032V27.01H29.166V35H4.867ZM37.0602 35V1.63H46.2252V35H37.0602ZM56.6772 35V1.63H65.8422V14.32L75.9942 1.63H86.3342L74.2082 16.576L87.1802 35H76.6522L68.3802 22.733L65.8422 25.365V35H56.6772ZM101.535 1.63H111.781L122.403 35H113.097L111.076 28.467H102.193L100.219 35H90.8664L101.535 1.63ZM109.619 22.357L106.658 10.607L103.556 22.357H109.619ZM139.041 18.597V35H129.876V1.63H137.02L150.415 18.597V1.63H159.58V35H152.295L139.041 18.597ZM177.718 1.63H187.964L198.586 35H189.28L187.259 28.467H178.376L176.402 35H167.049L177.718 1.63ZM185.802 22.357L182.841 10.607L179.739 22.357H185.802Z" fill="white"/>
<path d="M5.2433 50V39.35H12.2333V40.28H6.2933V44.195H11.3033V45.065H6.2933V50H5.2433ZM28.9612 50.075C28.2112 50.075 27.5312 49.925 26.9212 49.625C26.3112 49.325 25.7862 48.92 25.3462 48.41C24.9062 47.89 24.5662 47.31 24.3262 46.67C24.0862 46.02 23.9662 45.355 23.9662 44.675C23.9662 43.965 24.0912 43.29 24.3412 42.65C24.5912 42 24.9412 41.425 25.3912 40.925C25.8512 40.415 26.3862 40.015 26.9962 39.725C27.6062 39.425 28.2662 39.275 28.9762 39.275C29.7262 39.275 30.4062 39.43 31.0162 39.74C31.6262 40.05 32.1462 40.465 32.5762 40.985C33.0162 41.505 33.3562 42.085 33.5962 42.725C33.8362 43.365 33.9562 44.02 33.9562 44.69C33.9562 45.4 33.8312 46.08 33.5812 46.73C33.3312 47.37 32.9812 47.945 32.5312 48.455C32.0812 48.955 31.5512 49.35 30.9412 49.64C30.3312 49.93 29.6712 50.075 28.9612 50.075ZM25.0162 44.675C25.0162 45.255 25.1112 45.815 25.3012 46.355C25.4912 46.885 25.7612 47.36 26.1112 47.78C26.4612 48.19 26.8762 48.52 27.3562 48.77C27.8462 49.01 28.3812 49.13 28.9612 49.13C29.5712 49.13 30.1162 49.005 30.5962 48.755C31.0862 48.495 31.5012 48.155 31.8412 47.735C32.1912 47.305 32.4562 46.825 32.6362 46.295C32.8162 45.765 32.9062 45.225 32.9062 44.675C32.9062 44.095 32.8112 43.54 32.6212 43.01C32.4312 42.48 32.1562 42.005 31.7962 41.585C31.4462 41.165 31.0312 40.835 30.5512 40.595C30.0712 40.355 29.5412 40.235 28.9612 40.235C28.3612 40.235 27.8162 40.36 27.3262 40.61C26.8462 40.86 26.4312 41.2 26.0812 41.63C25.7412 42.05 25.4762 42.525 25.2862 43.055C25.1062 43.585 25.0162 44.125 25.0162 44.675ZM51.0709 50.075C50.2309 50.075 49.5209 49.925 48.9409 49.625C48.3609 49.325 47.9009 48.925 47.5609 48.425C47.2209 47.915 46.9709 47.34 46.8109 46.7C46.6609 46.06 46.5859 45.4 46.5859 44.72V39.35H47.6209V44.72C47.6209 45.27 47.6759 45.81 47.7859 46.34C47.9059 46.87 48.0959 47.345 48.3559 47.765C48.6159 48.185 48.9659 48.52 49.4059 48.77C49.8459 49.01 50.3959 49.13 51.0559 49.13C51.7359 49.13 52.2959 49.005 52.7359 48.755C53.1859 48.495 53.5359 48.155 53.7859 47.735C54.0459 47.315 54.2309 46.845 54.3409 46.325C54.4509 45.795 54.5059 45.26 54.5059 44.72V39.35H55.5559V44.72C55.5559 45.43 55.4759 46.11 55.3159 46.76C55.1559 47.41 54.8959 47.98 54.5359 48.47C54.1859 48.96 53.7259 49.35 53.1559 49.64C52.5859 49.93 51.8909 50.075 51.0709 50.075ZM69.9091 41.285V50H68.8591V39.35H69.7291L76.7191 48.23V39.365H77.7691V50H76.7941L69.9091 41.285ZM91.246 50V39.35H94.861C95.991 39.35 96.931 39.59 97.681 40.07C98.441 40.54 99.011 41.18 99.391 41.99C99.771 42.79 99.961 43.68 99.961 44.66C99.961 45.74 99.751 46.68 99.331 47.48C98.921 48.28 98.331 48.9 97.561 49.34C96.801 49.78 95.901 50 94.861 50H91.246ZM98.911 44.66C98.911 43.81 98.751 43.055 98.431 42.395C98.121 41.735 97.666 41.22 97.066 40.85C96.466 40.47 95.731 40.28 94.861 40.28H92.296V49.07H94.861C95.741 49.07 96.481 48.875 97.081 48.485C97.681 48.095 98.136 47.57 98.446 46.91C98.756 46.24 98.911 45.49 98.911 44.66ZM115.688 39.35H116.573L120.998 50H119.888L118.508 46.67H113.723L112.358 50H111.233L115.688 39.35ZM118.268 45.845L116.123 40.58L113.948 45.845H118.268ZM139.859 40.28H136.064V50H135.014V40.28H131.219V39.35H139.859V40.28ZM152.254 50V39.35H153.304V50H152.254ZM171.065 50.075C170.315 50.075 169.635 49.925 169.025 49.625C168.415 49.325 167.89 48.92 167.45 48.41C167.01 47.89 166.67 47.31 166.43 46.67C166.19 46.02 166.07 45.355 166.07 44.675C166.07 43.965 166.195 43.29 166.445 42.65C166.695 42 167.045 41.425 167.495 40.925C167.955 40.415 168.49 40.015 169.1 39.725C169.71 39.425 170.37 39.275 171.08 39.275C171.83 39.275 172.51 39.43 173.12 39.74C173.73 40.05 174.25 40.465 174.68 40.985C175.12 41.505 175.46 42.085 175.7 42.725C175.94 43.365 176.06 44.02 176.06 44.69C176.06 45.4 175.935 46.08 175.685 46.73C175.435 47.37 175.085 47.945 174.635 48.455C174.185 48.955 173.655 49.35 173.045 49.64C172.435 49.93 171.775 50.075 171.065 50.075ZM167.12 44.675C167.12 45.255 167.215 45.815 167.405 46.355C167.595 46.885 167.865 47.36 168.215 47.78C168.565 48.19 168.98 48.52 169.46 48.77C169.95 49.01 170.485 49.13 171.065 49.13C171.675 49.13 172.22 49.005 172.7 48.755C173.19 48.495 173.605 48.155 173.945 47.735C174.295 47.305 174.56 46.825 174.74 46.295C174.92 45.765 175.01 45.225 175.01 44.675C175.01 44.095 174.915 43.54 174.725 43.01C174.535 42.48 174.26 42.005 173.9 41.585C173.55 41.165 173.135 40.835 172.655 40.595C172.175 40.355 171.645 40.235 171.065 40.235C170.465 40.235 169.92 40.36 169.43 40.61C168.95 40.86 168.535 41.2 168.185 41.63C167.845 42.05 167.58 42.525 167.39 43.055C167.21 43.585 167.12 44.125 167.12 44.675ZM189.89 41.285V50H188.84V39.35H189.71L196.7 48.23V39.365H197.75V50H196.775L189.89 41.285Z" fill="white"/>
</svg>
